<?xml version="1.0" encoding="utf-8"?>
<!-- Generator: Adobe Illustrator 24.0.2, SVG Export Plug-In . SVG Version: 6.00 Build 0)  -->
<svg version="1.1" id="Layer_1" xmlns="http://www.w3.org/2000/svg" xmlns:xlink="http://www.w3.org/1999/xlink" x="0px" y="0px"
	 viewBox="0 0 167 215" style="enable-background:new 0 0 167 215;" xml:space="preserve">
<g>
	<path d="M9.1,77.4c0-2.3,0-3.5,0-3.5h17.7v7.1h-7.1v-3.5h-7.1v17.7h7.1v-3.5h7.1v3.5h-3.5v3.5H9.1v-3.5H5.5V77.4H9.1z"/>
	<path d="M30.3,73.8h21.3v3.5h3.5v7.1h-3.5V88h-3.5v3.5h3.5v3.5h3.5v3.5h-7.1v-3.5h-3.5v-4.5H41v8H30.3v-3.5h3.5V77.4h-3.5V73.8z
		 M48.1,84.4v-7.1H41v7.1H48.1z"/>
	<path d="M72.9,73.8H80v10.6h-3.5V88h-3.5v7.1h3.5v3.5H62.3v-3.5h3.5V88h-3.5v-3.5h-3.5V73.8h7.1v10.6h7.1V73.8z"/>
	<path d="M83.5,73.8h21.3v3.5h3.5v7.1h-3.5V88H94.2v7.1h3.5v3.5H83.5v-3.5h3.5V77.4h-3.5V73.8z M101.3,77.4h-7.1v7.1h7.1V77.4z"/>
	<path d="M126.1,95.1h3.5v3.5h-14.2v-3.5h3.5V77.4h-3.5v3.5h-3.5v-7.1h21.3v7.1h-3.5v-3.5h-3.5V95.1z"/>
	<path d="M154.4,73.8v3.5h3.5v17.7h-3.5v3.5h-14.2v-3.5h-3.5V77.4h3.5v-3.5H154.4z M143.8,77.5v17.4h7.1V77.5H143.8z"/>
</g>
<g>
	<path d="M19.4,133.9v-2.7h5.3v5.3H6v-2.7h2.6v-13.4H6v-2.7h18.7v5.3h-5.3v-2.7H14v5.3h5.3v2.7H14v5.3H19.4z"/>
	<path d="M38.1,117.9v2.7h-2.7v13.4h5.3v-5.3h5.3v8H27.4v-2.7h2.7v-13.4h-2.7v-2.7H38.1z"/>
	<path d="M62.1,133.9v-2.7h5.3v5.3H48.8v-2.7h2.6v-13.4h-2.6v-2.7h18.7v5.3h-5.3v-2.7h-5.3v5.3h5.3v2.7h-5.3v5.3H62.1z"/>
	<path d="M72.8,120.6c0-1.8,0-2.6,0-2.7h13.4v5.3h-5.3v-2.7h-5.3v13.4h5.3v-2.7h5.3v2.7h-2.7v2.7H72.8v-2.7h-2.7v-13.4H72.8z"/>
	<path d="M99.6,133.9h2.7v2.7H91.5v-2.7h2.7v-13.4h-2.7v2.7h-2.7v-5.3h16v5.3h-2.7v-2.7h-2.7V133.9z"/>
	<path d="M107.6,136.6v-2.7h2.6v-13.4h-2.6v-2.7h10.7v2.7h-2.7v13.4h2.7v2.7H107.6z"/>
	<path d="M134.3,117.9v2.7h2.7v13.4h-2.7v2.7h-10.7v-2.7h-2.7v-13.4h2.7v-2.7H134.3z M126.3,120.7v13.1h5.3v-13.1H126.3z"/>
	<path d="M153,117.9h5.3v18.7H153v-5.3h-2.7v-2.7h-2.7v8h-8v-2.7h2.7v-13.4h-2.7v-2.7h8v5.3h2.7v2.7h2.7V117.9z"/>
</g>
</svg>
